# xmcd CD database file
#
# Track frame offsets:
#	150
#	16411
#	33268
#	48862
#	62535
#	80502
#	95684
#	113928
#	129549
#	147627
#	161963
#	180415
#	199475
#	212289
#	230546
#	246017
#	263738
#	277165
#	298232
#
# Disc length: 4216 seconds
#
# Revision: 1
# Processed by: cddbd v1.5.2PL0 Copyright (c) Steve Scherf et al.
# Submitted via: CDex 1.51
#
DISCID=1e107613
DTITLE=Various Artist - RC89
DYEAR=2005
DGENRE=Country
TTITLE0=Toby Keith - Honkytonk U 
TTITLE1=Dierks Bently - Lot of Leavin' Left To Do
TTITLE2=Gretchen Wilson - Homewrecker
TTITLE3=Keith Anderson - Pickin' Wildflowers
TTITLE4=Keith Urban - Making Memories Of Us ( Radio Single Edit)
TTITLE5=JoDee Messina - My Give Give A Damn's Busted 
TTITLE6=Big and Rich - Big Time
TTITLE7=Tracie Atkins  - Songs About Me
TTITLE8=Amy Dalley - I Would Cry
TTITLE9=Jeff Bates - Long, Slow Kisses
TTITLE10=Blaine Larsen - How Do You Get That Lonely
TTITLE11=Martina McBride - God's Will ( Single Version)
TTITLE12=Blue Country - Nothin' But Cowboy Boots
TTITLE13=Lonestar - Class Reunion ( That Used To Be Us)
TTITLE14=Trick Pony - It's A Heartache 
TTITLE15=Hanna McEuen - Something Like A Broken Heart
TTITLE16=Allison Krauss and Union Station - Restless
TTITLE17=Tim McGraw - Drugs And Jesus
TTITLE18=Shania Twain - Don't
EXTD=YEAR: 2005
EXTT0=
EXTT1=
EXTT2=
EXTT3=
EXTT4=
EXTT5=
EXTT6=
EXTT7=
EXTT8=
EXTT9=
EXTT10=
EXTT11=
EXTT12=
EXTT13=
EXTT14=
EXTT15=
EXTT16=
EXTT17=
EXTT18=
PLAYORDER=
